<?xml version="1.0" encoding="UTF-8" standalone="no"?>
<svg
   id="Camada_1"
   data-name="Camada 1"
   viewBox="0 0 1050.0014 441.64001"
   version="1.1"
   sodipodi:docname="bostoncpm-logo.svg"
   width="1050.0015"
   height="441.64001"
   inkscape:version="1.4 (e7c3feb1, 2024-10-09)"
   xmlns:inkscape="http://www.inkscape.org/namespaces/inkscape"
   xmlns:sodipodi="http://sodipodi.sourceforge.net/DTD/sodipodi-0.dtd"
   xmlns="http://www.w3.org/2000/svg"
   xmlns:svg="http://www.w3.org/2000/svg"
   xmlns:rdf="http://www.w3.org/1999/02/22-rdf-syntax-ns#"
   xmlns:cc="http://creativecommons.org/ns#"
   xmlns:dc="http://purl.org/dc/elements/1.1/">
  <sodipodi:namedview
     id="namedview66"
     pagecolor="#505050"
     bordercolor="#ffffff"
     borderopacity="1"
     inkscape:showpageshadow="0"
     inkscape:pageopacity="0"
     inkscape:pagecheckerboard="1"
     inkscape:deskcolor="#d1d1d1"
     inkscape:zoom="0.87997483"
     inkscape:cx="525.01501"
     inkscape:cy="250.57535"
     inkscape:window-width="2544"
     inkscape:window-height="730"
     inkscape:window-x="7"
     inkscape:window-y="33"
     inkscape:window-maximized="0"
     inkscape:current-layer="Camada_1" />
  <defs
     id="defs1">
    <style
       id="style1">.cls-1{fill:none;}.cls-2{fill:#1f5ab0;}.cls-3{fill:#348fd5;}.cls-4{fill:#b2b2b2;}.cls-5{fill:#8c8c8c;}.cls-6{fill:#fff;}.cls-7{fill:#d2be36;}.cls-8{fill:#b5b7bb;}</style>
  </defs>
  <title
     id="title1">Logo Boston - Colorido Sem Fundo</title>
  <path
     class="cls-1"
     d="m 73.73146,222.47 a 157.23,157.23 0 0 0 152.81,157.18 l -12.44,-119.29 a 4.15,4.15 0 0 0 -2.41,-3.09 l -0.31,-0.19 a 4.37,4.37 0 0 0 -4.51,0.25 l -34.79,24 0.08,-0.12 -0.08,0.06 24,-34.79 a 4.25,4.25 0 0 0 0.76,-2.3 4.45,4.45 0 0 0 -0.58,-2.27 l -0.25,-0.43 a 4.08,4.08 0 0 0 -3,-2.16 l -91.93,-16.85 h -0.09 v 0 l 92,-16.81 a 4.28,4.28 0 0 0 3,-2.16 l 0.31,-0.49 a 4.47,4.47 0 0 0 0.53,-2.48 v -0.06 a 4.22,4.22 0 0 0 -0.07,-0.45 q 0,-0.19 -0.1,-0.38 v -0.14 a 4.53,4.53 0 0 0 -0.18,-0.43 l -0.06,-0.13 c -0.06,-0.11 -0.12,-0.22 -0.18,-0.32 a 4.05,4.05 0 0 0 -0.26,-0.37 l -17.18,-24.9 -6.68,-9.64 v 0 l -0.11,-0.15 34.79,24 a 4.34,4.34 0 0 0 4.63,0.19 l 0.43,-0.25 a 4.24,4.24 0 0 0 2.16,-3 l 0.16,-0.86 12.38,-118.34 a 157.23,157.23 0 0 0 -152.83,157.17 z"
     id="path1" />
  <path
     class="cls-2"
     d="m 186.73146,43.53 -3.2,-11.65 v 0 l -5.05,-18.37 -3.72,-13.51 A 239.54,239.54 0 0 0 49.61146,84 235.74,235.74 0 0 0 0.00145987,229.5 240.52,240.52 0 0 0 2.8314599,266.31 L 19.51146,263.72 v 0 l 10.65,-1.65 8.18,-1.27 9.1,-1.41 a 195.15,195.15 0 0 1 -2.3,-29.88 c 0,-86.59 58.22,-163.06 141.59,-185.98 z"
     id="path2" />
  <path
     class="cls-3"
     d="m 223.07146,26.28 2,-19.14 q -9.53,0.26 -18.84,1.34 l 5.11,18.6 c 3.89,-0.39 7.8,-0.64 11.73,-0.8 z"
     id="path3" />
  <path
     class="cls-3"
     d="M 154.54146,403.41 A 197.12,197.12 0 0 1 50.00146,298.9 c -1.52,-3.58 -2.91,-7.2 -4.2,-10.85 l -19.14,3 c 28,83.59 105.94,144.29 198.38,146.78 l -2,-19.14 a 194.7,194.7 0 0 1 -68.5,-15.28 z"
     id="path4" />
  <polygon
     class="cls-4"
     points="198.05,201.39 172.02,163.54 211.65,190.58 "
     id="polygon4"
     transform="translate(0.00145987)" />
  <polygon
     class="cls-4"
     points="198.05,243.51 172.02,281.37 211.65,254.33 "
     id="polygon5"
     transform="translate(0.00145987)" />
  <polygon
     class="cls-4"
     points="262.29,243.51 288.32,281.37 248.69,254.33 "
     id="polygon6"
     transform="translate(0.00145987)" />
  <polygon
     class="cls-4"
     points="252.91,188.68 290.76,162.65 263.73,202.28 "
     id="polygon7"
     transform="translate(0.00145987)" />
  <path
     class="cls-5"
     d="m 235.59146,257 c -7.92,0.47 -15.5,0.2 -22.42,-3.26 l 17.83,168.36 17.75,-168.95 a 29.8,29.8 0 0 1 -13.16,3.85 z"
     id="path7" />
  <path
     class="cls-6"
     d="m 191.65146,238.63 q -0.79,-1.86 -1.4,-3.81 0.61,1.94 1.4,3.81 z"
     id="path8" />
  <path
     class="cls-6"
     d="m 205.06146,189.22 q 1.6,-1.19 3.31,-2.24 -1.71,1.02 -3.31,2.24 z"
     id="path9" />
  <path
     class="cls-6"
     d="m 202.00146,191.75 q 1.47,-1.34 3.07,-2.54 -1.61,1.2 -3.07,2.54 z"
     id="path10" />
  <path
     class="cls-6"
     d="m 205.06146,255.73 q -1.6,-1.19 -3.07,-2.54 1.47,1.34 3.07,2.54 z"
     id="path11" />
  <path
     class="cls-6"
     d="m 208.37146,258 q -1.71,-1 -3.31,-2.24 1.6,1.16 3.31,2.24 z"
     id="path12" />
  <path
     class="cls-6"
     d="m 242.23146,262.11 a 41.39,41.39 0 0 1 -10.23,1.81 41.39,41.39 0 0 0 10.23,-1.81 z"
     id="path13" />
  <path
     class="cls-6"
     d="m 223.57146,263.5 a 41.24,41.24 0 0 1 -15.2,-5.53 41.24,41.24 0 0 0 15.2,5.53 z"
     id="path14" />
  <path
     class="cls-6"
     d="m 267.30146,240.47 a 41.57,41.57 0 0 1 -6.69,9.91 41.57,41.57 0 0 0 6.69,-9.91 z"
     id="path15" />
  <path
     class="cls-6"
     d="m 190.26146,210.13 q 0.61,-1.95 1.4,-3.81 -0.79,1.86 -1.4,3.81 z"
     id="path16" />
  <path
     class="cls-6"
     d="m 194.40146,244 a 41.7,41.7 0 0 0 7.59,9.2 41.7,41.7 0 0 1 -7.59,-9.2 z"
     id="path17" />
  <path
     class="cls-6"
     d="m 242.23146,262.11 a 41.52,41.52 0 0 0 18.38,-11.73 41.52,41.52 0 0 1 -18.38,11.73 z"
     id="path18" />
  <path
     class="cls-5"
     d="m 197.50146,222.47 a 32.2,32.2 0 0 1 6,-18.77 v 0 l -102.43,18.77 91.32,16.9 10,0.2 a 32.19,32.19 0 0 1 -4.89,-17.1 z"
     id="path19" />
  <path
     class="cls-5"
     d="m 267.89146,205.31 -10.72,-0.31 a 32.3,32.3 0 0 1 -0.49,35.61 l 4.71,0.09 99.48,-18.28 z"
     id="path20" />
  <path
     class="cls-6"
     d="m 202.00146,191.75 a 41.69,41.69 0 0 0 -7.59,9.2 41.69,41.69 0 0 1 7.59,-9.2 z"
     id="path21" />
  <path
     class="cls-6"
     d="m 208.37146,187 a 41.23,41.23 0 0 1 15.2,-5.53 41.23,41.23 0 0 0 -15.2,5.53 z"
     id="path22" />
  <path
     class="cls-6"
     d="m 232.00146,181 a 41.38,41.38 0 0 1 10.21,1.81 41.38,41.38 0 0 0 -10.21,-1.81 z"
     id="path23" />
  <path
     class="cls-6"
     d="m 260.61146,194.57 a 41.52,41.52 0 0 0 -18.38,-11.73 41.52,41.52 0 0 1 18.38,11.73 z"
     id="path24" />
  <path
     class="cls-6"
     d="m 260.61146,194.57 a 41.56,41.56 0 0 1 6.69,9.91 41.56,41.56 0 0 0 -6.69,-9.91 z"
     id="path25" />
  <path
     class="cls-7"
     d="m 267.30146,204.48 a 41.43,41.43 0 0 0 -35.3,-23.48 q -1,0 -2.11,0 a 41.85,41.85 0 0 0 -6.32,0.48 41.23,41.23 0 0 0 -15.2,5.53 q -1.71,1 -3.31,2.24 -1.6,1.24 -3.06,2.5 a 41.56,41.56 0 0 0 -10.34,14.57 q -0.79,1.86 -1.4,3.81 a 41.75,41.75 0 0 0 0,24.68 q 0.61,1.95 1.4,3.81 a 41.56,41.56 0 0 0 10.34,14.57 q 1.47,1.34 3.07,2.54 1.6,1.2 3.31,2.24 a 41.24,41.24 0 0 0 15.2,5.53 41.82,41.82 0 0 0 6.32,0.48 q 1.07,0 2.14,-0.05 a 41.52,41.52 0 0 0 35.27,-59.44 z m -37.41,50.38 a 32.39,32.39 0 1 1 32.39,-32.39 32.43,32.43 0 0 1 -32.39,32.39 z"
     id="path26" />
  <circle
     class="cls-7"
     cx="229.89146"
     cy="222.47"
     r="17.209999"
     id="circle26" />
  <path
     class="cls-3"
     d="m 307.40146,41.53 a 196.4,196.4 0 0 1 112.85,128.47 h 19.7 c -22.95,-91.78 -104.82,-160.22 -203.08,-162.86 l 2,19.15 a 194.7,194.7 0 0 1 68.53,15.24 z"
     id="path27" />
  <path
     class="cls-3"
     d="m 242.90146,56.64 1.22,9.14 a 157.53,157.53 0 0 1 135.16,104.22 h 9.51 a 166.38,166.38 0 0 0 -145.89,-113.36 z"
     id="path28" />
  <polygon
     class="cls-7"
     points="248.64,187.94 230.97,22.85 213.83,187.19 "
     id="polygon28"
     transform="translate(0.00145987)" />
  <path
     class="cls-3"
     d="m 215.91146,379 a 157.24,157.24 0 0 1 -96.13,-267.71 156,156 0 0 1 97.38,-45.44 l 1.37,-9.17 a 166.26,166.26 0 0 0 -0.36,331.56 z"
     id="path29" />
  <path
     class="cls-2"
     d="m 518.00146,134.9 a 19.89,19.89 0 0 1 4.39,12.69 20.46,20.46 0 0 1 -3.22,11.41 21.14,21.14 0 0 1 -9.17,7.67 33.62,33.62 0 0 1 -14.19,2.77 h -34.74 V 88.85 h 33.23 a 34.48,34.48 0 0 1 14.14,2.65 20.14,20.14 0 0 1 9,7.39 19.35,19.35 0 0 1 3.06,10.73 18.36,18.36 0 0 1 -3.75,11.77 20.06,20.06 0 0 1 -10,6.69 18.11,18.11 0 0 1 11.25,6.82 z m -40.74,-12.81 h 14.74 q 5.77,0 8.89,-2.6 a 9.14,9.14 0 0 0 3.11,-7.49 9.32,9.32 0 0 0 -3.12,-7.5 q -3.12,-2.65 -8.89,-2.65 h -14.77 z m 25.45,31.39 a 9.69,9.69 0 0 0 3.29,-7.85 10.11,10.11 0 0 0 -3.46,-8.14 q -3.46,-2.94 -9.35,-2.94 h -15.97 v 21.7 h 16.27 q 5.89,0 9.18,-2.77 z"
     id="path30" />
  <path
     class="cls-2"
     d="m 551.89146,164.9 a 39.61,39.61 0 0 1 -15,-14.71 43.47,43.47 0 0 1 0,-42.47 39.64,39.64 0 0 1 15,-14.71 43.41,43.41 0 0 1 41.6,0 39.35,39.35 0 0 1 14.89,14.71 43.87,43.87 0 0 1 0,42.47 39.21,39.21 0 0 1 -14.94,14.71 43.3,43.3 0 0 1 -41.55,0 z m 33.58,-12.41 a 22.53,22.53 0 0 0 8.66,-9.41 30.86,30.86 0 0 0 3.12,-14.19 30.51,30.51 0 0 0 -3.12,-14.14 22.24,22.24 0 0 0 -8.66,-9.29 25,25 0 0 0 -12.81,-3.23 25.28,25.28 0 0 0 -12.87,3.23 22.13,22.13 0 0 0 -8.71,9.29 30.51,30.51 0 0 0 -3.08,14.14 30.86,30.86 0 0 0 3.12,14.19 22.41,22.41 0 0 0 8.71,9.41 24.92,24.92 0 0 0 12.87,3.29 24.61,24.61 0 0 0 12.77,-3.29 z"
     id="path31" />
  <path
     class="cls-2"
     d="m 638.50146,167.32 a 24.89,24.89 0 0 1 -10.68,-8.32 21.86,21.86 0 0 1 -4,-12.81 h 17.31 a 11.19,11.19 0 0 0 3.52,7.85 q 3.17,2.89 8.71,2.89 5.54,0 8.89,-2.71 a 8.82,8.82 0 0 0 3.23,-7.1 8.21,8.21 0 0 0 -2.19,-5.89 15.39,15.39 0 0 0 -5.48,-3.64 91.38,91.38 0 0 0 -9.06,-2.94 96.86,96.86 0 0 1 -12.75,-4.54 22.31,22.31 0 0 1 -8.42,-6.81 q -3.58,-4.56 -3.58,-12.18 a 21.77,21.77 0 0 1 3.58,-12.46 22.76,22.76 0 0 1 10,-8.14 36.54,36.54 0 0 1 14.82,-2.82 q 12.46,0 20.25,6.06 7.79,6.06 8.6,16.91 h -17.77 a 9.23,9.23 0 0 0 -3.52,-6.87 13.27,13.27 0 0 0 -8.71,-2.71 11.22,11.22 0 0 0 -7.56,2.42 q -2.83,2.42 -2.83,7 a 7.27,7.27 0 0 0 2.14,5.37 16.23,16.23 0 0 0 5.31,3.46 q 3.17,1.33 8.94,3.06 a 94.25,94.25 0 0 1 12.81,4.6 23,23 0 0 1 8.54,7 q 3.58,4.62 3.58,12.12 a 22.8,22.8 0 0 1 -3.35,12 23.64,23.64 0 0 1 -9.81,8.83 33.46,33.46 0 0 1 -15.35,3.29 38.25,38.25 0 0 1 -15.17,-2.92 z"
     id="path32" />
  <path
     class="cls-2"
     d="m 751.00146,88.85 v 13 h -21.51 v 67.55 h -16.15 v -67.51 h -21.47 v -13 z"
     id="path33" />
  <path
     class="cls-2"
     d="m 779.35146,164.9 a 39.61,39.61 0 0 1 -15,-14.71 43.47,43.47 0 0 1 0,-42.47 39.64,39.64 0 0 1 15,-14.71 43.41,43.41 0 0 1 41.65,-0.01 39.35,39.35 0 0 1 14.89,14.71 43.87,43.87 0 0 1 0,42.47 39.21,39.21 0 0 1 -14.94,14.71 43.3,43.3 0 0 1 -41.55,0 z m 33.58,-12.41 a 22.53,22.53 0 0 0 8.66,-9.41 30.86,30.86 0 0 0 3.12,-14.19 30.51,30.51 0 0 0 -3.12,-14.14 22.24,22.24 0 0 0 -8.66,-9.29 25,25 0 0 0 -12.81,-3.23 25.28,25.28 0 0 0 -12.87,3.23 22.13,22.13 0 0 0 -8.71,9.29 30.51,30.51 0 0 0 -3.12,14.14 30.86,30.86 0 0 0 3.12,14.19 22.41,22.41 0 0 0 8.71,9.41 24.92,24.92 0 0 0 12.87,3.29 24.61,24.61 0 0 0 12.81,-3.29 z"
     id="path34" />
  <path
     class="cls-2"
     d="m 922.22146,169.4 h -16.16 l -36.58,-55.28 v 55.28 h -16.16 V 88.73 h 16.16 l 36.58,55.39 V 88.73 h 16.16 z"
     id="path35" />
  <path
     class="cls-3"
     d="m 361.13146,266.37 a 107.68,107.68 0 0 1 41.18,-41.18 q 26.1,-14.75 58.53,-14.75 37.94,0 66.47,19.46 28.53,19.46 39.88,53.83 h -52.19 q -7.78,-16.21 -21.89,-24.32 -14.11,-8.11 -32.59,-8.11 -19.78,0 -35.18,9.24 a 63.06,63.06 0 0 0 -24,26.1 q -8.59,16.86 -8.59,39.56 0,22.37 8.59,39.4 a 62.82,62.82 0 0 0 24,26.27 q 15.4,9.24 35.18,9.24 18.48,0 32.59,-8.27 14.11,-8.27 21.89,-24.49 h 52.21 q -11.36,34.7 -39.72,54 -28.36,19.3 -66.64,19.29 -32.43,0 -58.53,-14.75 a 108,108 0 0 1 -41.18,-41 q -15.08,-26.27 -15.08,-59.66 0,-33.39 15.07,-59.86 z"
     id="path64" />
  <path
     class="cls-3"
     d="m 762.57146,317.44 q -8.59,15.89 -26.91,25.62 -18.32,9.73 -46.21,9.73 h -37.94 v 86.9 h -45.4 V 213.35 h 83.34 q 26.27,0 44.75,9.08 18.48,9.08 27.72,25 9.24,15.89 9.24,36 a 70.51,70.51 0 0 1 -8.59,34.01 z m -47.18,-9.89 q 9.07,-8.59 9.08,-24.16 0,-33.08 -37,-33.08 h -36 v 65.83 h 36 q 18.84,0 27.92,-8.59 z"
     id="path65" />
  <path
     class="cls-3"
     d="m 1050.0015,213.35 v 226.34 h -45.4 V 292.47 l -60.60004,147.22 h -34.38 l -61,-147.22 v 147.22 h -45.4 V 213.35 h 51.56 l 72,168.29 72,-168.29 z"
     id="path66" />
  <metadata
     id="metadata66">
    <rdf:RDF>
      <cc:Work
         rdf:about="">
        <dc:title>Logo Boston - Colorido Sem Fundo</dc:title>
      </cc:Work>
    </rdf:RDF>
  </metadata>
</svg>
