<svg id="Camada_1" data-name="Camada 1" xmlns="http://www.w3.org/2000/svg" viewBox="0 0 1050.03 500.88"><defs><style>.cls-1{fill:none;}.cls-2{fill:#1f5ab0;}.cls-3{fill:#348fd5;}.cls-4{fill:#b2b2b2;}.cls-5{fill:#8c8c8c;}.cls-6{fill:#fff;}.cls-7{fill:#d2be36;}.cls-8{fill:#b5b7bb;}</style></defs><title>Logo Boston - Colorido Sem Fundo</title><path class="cls-1" d="M73.73,222.47A157.23,157.23,0,0,0,226.54,379.65L214.1,260.36a4.15,4.15,0,0,0-2.41-3.09l-.31-.19a4.37,4.37,0,0,0-4.51.25l-34.79,24,.08-.12-.08.06,24-34.79a4.25,4.25,0,0,0,.76-2.3,4.45,4.45,0,0,0-.58-2.27l-.25-.43a4.08,4.08,0,0,0-3-2.16l-91.93-16.85-.09,0h0l92-16.81a4.28,4.28,0,0,0,3-2.16l.31-.49a4.47,4.47,0,0,0,.53-2.48v-.06a4.22,4.22,0,0,0-.07-.45q0-.19-.1-.38l0-.14a4.53,4.53,0,0,0-.18-.43l-.06-.13c-.06-.11-.12-.22-.18-.32a4.05,4.05,0,0,0-.26-.37l-17.18-24.9-6.68-9.64,0,0-.11-.15,34.79,24a4.34,4.34,0,0,0,4.63.19l.43-.25a4.24,4.24,0,0,0,2.16-3l.16-.86L226.56,65.3A157.23,157.23,0,0,0,73.73,222.47Z"/><path class="cls-2" d="M186.73,43.53l-3.2-11.65h0l-5.05-18.37L174.76,0A239.54,239.54,0,0,0,49.61,84,235.74,235.74,0,0,0,0,229.5a240.52,240.52,0,0,0,2.83,36.81l16.68-2.59h0l10.65-1.65,8.18-1.27,9.1-1.41a195.15,195.15,0,0,1-2.3-29.88C45.14,142.92,103.36,66.45,186.73,43.53Z"/><path class="cls-3" d="M223.07,26.28l2-19.14q-9.53.26-18.84,1.34l5.11,18.6C215.23,26.69,219.14,26.44,223.07,26.28Z"/><path class="cls-3" d="M154.54,403.41A197.12,197.12,0,0,1,50,298.9c-1.52-3.58-2.91-7.2-4.2-10.85l-19.14,3c28,83.59,105.94,144.29,198.38,146.78l-2-19.14A194.7,194.7,0,0,1,154.54,403.41Z"/><polygon class="cls-4" points="172.02 163.54 211.65 190.58 198.05 201.39 172.02 163.54"/><polygon class="cls-4" points="172.02 281.37 211.65 254.33 198.05 243.51 172.02 281.37"/><polygon class="cls-4" points="288.32 281.37 248.69 254.33 262.29 243.51 288.32 281.37"/><polygon class="cls-4" points="290.76 162.65 263.73 202.28 252.91 188.68 290.76 162.65"/><path class="cls-5" d="M235.59,257c-7.92.47-15.5.2-22.42-3.26L231,422.1l17.75-168.95A29.8,29.8,0,0,1,235.59,257Z"/><path class="cls-6" d="M191.65,238.63q-.79-1.86-1.4-3.81Q190.86,236.76,191.65,238.63Z"/><path class="cls-6" d="M205.06,189.22q1.6-1.19,3.31-2.24Q206.66,188,205.06,189.22Z"/><path class="cls-6" d="M202,191.75q1.47-1.34,3.07-2.54Q203.46,190.41,202,191.75Z"/><path class="cls-6" d="M205.06,255.73q-1.6-1.19-3.07-2.54Q203.46,254.53,205.06,255.73Z"/><path class="cls-6" d="M208.37,258q-1.71-1-3.31-2.24Q206.66,256.92,208.37,258Z"/><path class="cls-6" d="M242.23,262.11A41.39,41.39,0,0,1,232,263.92,41.39,41.39,0,0,0,242.23,262.11Z"/><path class="cls-6" d="M223.57,263.5a41.24,41.24,0,0,1-15.2-5.53A41.24,41.24,0,0,0,223.57,263.5Z"/><path class="cls-6" d="M267.3,240.47a41.57,41.57,0,0,1-6.69,9.91A41.57,41.57,0,0,0,267.3,240.47Z"/><path class="cls-6" d="M190.26,210.13q.61-1.95,1.4-3.81Q190.87,208.18,190.26,210.13Z"/><path class="cls-6" d="M194.4,244a41.7,41.7,0,0,0,7.59,9.2A41.7,41.7,0,0,1,194.4,244Z"/><path class="cls-6" d="M242.23,262.11a41.52,41.52,0,0,0,18.38-11.73A41.52,41.52,0,0,1,242.23,262.11Z"/><path class="cls-5" d="M197.5,222.47a32.2,32.2,0,0,1,6-18.77h0L101.07,222.47l91.32,16.9,10,.2A32.19,32.19,0,0,1,197.5,222.47Z"/><path class="cls-5" d="M267.89,205.31,257.17,205a32.3,32.3,0,0,1-.49,35.61l4.71.09,99.48-18.28Z"/><path class="cls-6" d="M202,191.75a41.69,41.69,0,0,0-7.59,9.2A41.69,41.69,0,0,1,202,191.75Z"/><path class="cls-6" d="M208.37,187a41.23,41.23,0,0,1,15.2-5.53A41.23,41.23,0,0,0,208.37,187Z"/><path class="cls-6" d="M232,181a41.38,41.38,0,0,1,10.21,1.81A41.38,41.38,0,0,0,232,181Z"/><path class="cls-6" d="M260.61,194.57a41.52,41.52,0,0,0-18.38-11.73A41.52,41.52,0,0,1,260.61,194.57Z"/><path class="cls-6" d="M260.61,194.57a41.56,41.56,0,0,1,6.69,9.91A41.56,41.56,0,0,0,260.61,194.57Z"/><path class="cls-7" d="M267.3,204.48A41.43,41.43,0,0,0,232,181Q231,181,229.89,181a41.85,41.85,0,0,0-6.32.48,41.23,41.23,0,0,0-15.2,5.53q-1.71,1-3.31,2.24T202,191.75a41.56,41.56,0,0,0-10.34,14.57q-.79,1.86-1.4,3.81a41.75,41.75,0,0,0,0,24.68q.61,1.95,1.4,3.81A41.56,41.56,0,0,0,202,253.19q1.47,1.34,3.07,2.54t3.31,2.24a41.24,41.24,0,0,0,15.2,5.53,41.82,41.82,0,0,0,6.32.48q1.07,0,2.14-.05a41.52,41.52,0,0,0,35.27-59.44Zm-37.41,50.38a32.39,32.39,0,1,1,32.39-32.39A32.43,32.43,0,0,1,229.89,254.86Z"/><circle class="cls-7" cx="229.89" cy="222.47" r="17.21"/><path class="cls-3" d="M307.4,41.53A196.4,196.4,0,0,1,420.25,170h19.7C417,78.22,335.13,9.78,236.87,7.14l2,19.15A194.7,194.7,0,0,1,307.4,41.53Z"/><path class="cls-3" d="M242.9,56.64l1.22,9.14A157.53,157.53,0,0,1,379.28,170h9.51A166.38,166.38,0,0,0,242.9,56.64Z"/><polygon class="cls-7" points="230.97 22.85 213.83 187.19 248.64 187.94 230.97 22.85"/><path class="cls-3" d="M215.91,379a157.24,157.24,0,0,1-96.13-267.71,156,156,0,0,1,97.38-45.44l1.37-9.17a166.26,166.26,0,0,0-.36,331.56Z"/><path class="cls-2" d="M518,134.9a19.89,19.89,0,0,1,4.39,12.69A20.46,20.46,0,0,1,519.17,159a21.14,21.14,0,0,1-9.17,7.67,33.62,33.62,0,0,1-14.19,2.77H461.07V88.85H494.3a34.48,34.48,0,0,1,14.14,2.65,20.14,20.14,0,0,1,9,7.39,19.35,19.35,0,0,1,3.06,10.73,18.36,18.36,0,0,1-3.75,11.77,20.06,20.06,0,0,1-10,6.69A18.11,18.11,0,0,1,518,134.9Zm-40.74-12.81H492q5.77,0,8.89-2.6A9.14,9.14,0,0,0,504,112a9.32,9.32,0,0,0-3.12-7.5q-3.12-2.65-8.89-2.65H477.22Zm25.45,31.39a9.69,9.69,0,0,0,3.29-7.85,10.11,10.11,0,0,0-3.46-8.14q-3.46-2.94-9.35-2.94H477.22v21.7h16.27Q499.38,156.25,502.67,153.48Z"/><path class="cls-2" d="M551.89,164.9a39.61,39.61,0,0,1-15-14.71,43.47,43.47,0,0,1,0-42.47,39.64,39.64,0,0,1,15-14.71,43.41,43.41,0,0,1,41.6,0,39.35,39.35,0,0,1,14.89,14.71,43.87,43.87,0,0,1,0,42.47,39.21,39.21,0,0,1-14.94,14.71,43.3,43.3,0,0,1-41.55,0Zm33.58-12.41a22.53,22.53,0,0,0,8.66-9.41,30.86,30.86,0,0,0,3.12-14.19,30.51,30.51,0,0,0-3.12-14.14,22.24,22.24,0,0,0-8.66-9.29,25,25,0,0,0-12.81-3.23,25.28,25.28,0,0,0-12.87,3.23,22.13,22.13,0,0,0-8.71,9.29A30.51,30.51,0,0,0,548,128.89a30.86,30.86,0,0,0,3.12,14.19,22.41,22.41,0,0,0,8.71,9.41,24.92,24.92,0,0,0,12.87,3.29A24.61,24.61,0,0,0,585.47,152.49Z"/><path class="cls-2" d="M638.5,167.32A24.89,24.89,0,0,1,627.82,159a21.86,21.86,0,0,1-4-12.81h17.31a11.19,11.19,0,0,0,3.52,7.85q3.17,2.89,8.71,2.89t8.89-2.71a8.82,8.82,0,0,0,3.23-7.1,8.21,8.21,0,0,0-2.19-5.89,15.39,15.39,0,0,0-5.48-3.64,91.38,91.38,0,0,0-9.06-2.94A96.86,96.86,0,0,1,636,130.11a22.31,22.31,0,0,1-8.42-6.81Q624,118.74,624,111.12a21.77,21.77,0,0,1,3.58-12.46,22.76,22.76,0,0,1,10-8.14A36.54,36.54,0,0,1,652.4,87.7q12.46,0,20.25,6.06t8.6,16.91H663.48a9.23,9.23,0,0,0-3.52-6.87,13.27,13.27,0,0,0-8.71-2.71,11.22,11.22,0,0,0-7.56,2.42q-2.83,2.42-2.83,7a7.27,7.27,0,0,0,2.14,5.37,16.23,16.23,0,0,0,5.31,3.46q3.17,1.33,8.94,3.06A94.25,94.25,0,0,1,670.06,127,23,23,0,0,1,678.6,134q3.58,4.62,3.58,12.12a22.8,22.8,0,0,1-3.35,12,23.64,23.64,0,0,1-9.81,8.83,33.46,33.46,0,0,1-15.35,3.29A38.25,38.25,0,0,1,638.5,167.32Z"/><path class="cls-2" d="M751,88.85v13H729.49V169.4H713.34V101.89H691.87v-13Z"/><path class="cls-2" d="M779.35,164.9a39.61,39.61,0,0,1-15-14.71,43.47,43.47,0,0,1,0-42.47,39.64,39.64,0,0,1,15-14.71A43.41,43.41,0,0,1,821,93a39.35,39.35,0,0,1,14.89,14.71,43.87,43.87,0,0,1,0,42.47,39.21,39.21,0,0,1-14.94,14.71,43.3,43.3,0,0,1-41.55,0Zm33.58-12.41a22.53,22.53,0,0,0,8.66-9.41,30.86,30.86,0,0,0,3.12-14.19,30.51,30.51,0,0,0-3.12-14.14,22.24,22.24,0,0,0-8.66-9.29,25,25,0,0,0-12.81-3.23,25.28,25.28,0,0,0-12.87,3.23,22.13,22.13,0,0,0-8.71,9.29,30.51,30.51,0,0,0-3.12,14.14,30.86,30.86,0,0,0,3.12,14.19,22.41,22.41,0,0,0,8.71,9.41,24.92,24.92,0,0,0,12.87,3.29A24.61,24.61,0,0,0,812.93,152.49Z"/><path class="cls-2" d="M922.22,169.4H906.06l-36.58-55.28V169.4H853.32V88.73h16.16l36.58,55.39V88.73h16.16Z"/><path class="cls-8" d="M366.45,480.74a12.36,12.36,0,0,1,4.73-4.73,13.41,13.41,0,0,1,6.72-1.69,13.21,13.21,0,0,1,7.63,2.23,11.68,11.68,0,0,1,4.58,6.18h-6a6.21,6.21,0,0,0-2.51-2.79,7.38,7.38,0,0,0-3.74-.93,7.69,7.69,0,0,0-4,1.06,7.23,7.23,0,0,0-2.75,3,10.9,10.9,0,0,0,0,9.06,7.2,7.2,0,0,0,2.75,3,7.69,7.69,0,0,0,4,1.06,7.26,7.26,0,0,0,3.74-.95,6.32,6.32,0,0,0,2.51-2.81h6a11.61,11.61,0,0,1-4.56,6.19,14.24,14.24,0,0,1-14.36.52,12.39,12.39,0,0,1-4.73-4.71,14.44,14.44,0,0,1,0-13.71Z"/><path class="cls-8" d="M398.8,499.17a12.77,12.77,0,0,1-4.84-4.74,14,14,0,0,1,0-13.69A12.78,12.78,0,0,1,398.8,476a14,14,0,0,1,13.41,0,12.68,12.68,0,0,1,4.8,4.74,14.14,14.14,0,0,1,0,13.69,12.64,12.64,0,0,1-4.82,4.74,14,14,0,0,1-13.39,0Zm10.83-4a7.27,7.27,0,0,0,2.79-3,10,10,0,0,0,1-4.58,9.84,9.84,0,0,0-1-4.56,7.17,7.17,0,0,0-2.79-3,8.05,8.05,0,0,0-4.13-1,8.15,8.15,0,0,0-4.15,1,7.13,7.13,0,0,0-2.81,3,9.84,9.84,0,0,0-1,4.56,10,10,0,0,0,1,4.58,7.22,7.22,0,0,0,2.81,3,8,8,0,0,0,4.15,1.06A7.93,7.93,0,0,0,409.62,495.17Z"/><path class="cls-8" d="M449.84,474.65v26h-5.21V483.73l-7,16.89h-3.94l-7-16.89v16.89h-5.21v-26h5.92L435.7,494,444,474.65Z"/><path class="cls-8" d="M482.17,474.65v26H477V483.73l-7,16.89h-3.94l-7-16.89v16.89h-5.21v-26h5.92L468,494l8.26-19.31Z"/><path class="cls-8" d="M491.4,478.86v6.51h8.74v4.13H491.4v6.88h9.86v4.24H486.19v-26h15.07v4.24Z"/><path class="cls-8" d="M518.26,500.62l-5.73-10.12h-2.46v10.12h-5.21v-26h9.75a11.38,11.38,0,0,1,5.13,1.06,7.41,7.41,0,0,1,3.18,2.86,7.82,7.82,0,0,1,1.06,4,7.73,7.73,0,0,1-1.49,4.63,7.65,7.65,0,0,1-4.43,2.85l6.21,10.53Zm-8.19-14h4.35a4.35,4.35,0,0,0,3.16-1,3.81,3.81,0,0,0,1-2.85,3.63,3.63,0,0,0-1-2.77,4.46,4.46,0,0,0-3.16-1h-4.35Z"/><path class="cls-8" d="M528.07,480.74a12.36,12.36,0,0,1,4.73-4.73,13.41,13.41,0,0,1,6.72-1.69,13.21,13.21,0,0,1,7.63,2.23,11.68,11.68,0,0,1,4.58,6.18h-6a6.21,6.21,0,0,0-2.51-2.79,7.38,7.38,0,0,0-3.74-.93,7.69,7.69,0,0,0-4,1.06,7.23,7.23,0,0,0-2.75,3,10.9,10.9,0,0,0,0,9.06,7.2,7.2,0,0,0,2.75,3,7.69,7.69,0,0,0,4,1.06,7.26,7.26,0,0,0,3.74-.95,6.32,6.32,0,0,0,2.51-2.81h6a11.61,11.61,0,0,1-4.56,6.19,14.24,14.24,0,0,1-14.36.52,12.39,12.39,0,0,1-4.73-4.71,14.44,14.44,0,0,1,0-13.71Z"/><path class="cls-8" d="M560.27,474.65v26h-5.21v-26Z"/><path class="cls-8" d="M580.21,495.67H569.87l-1.71,4.95h-5.47l9.34-26h6.06l9.34,26h-5.51Zm-1.41-4.17L575,480.64l-3.76,10.86Z"/><path class="cls-8" d="M595,496.49h8.56v4.13H589.81v-26H595Z"/><path class="cls-8" d="M631.46,486.6a7.24,7.24,0,0,1-3.09,2.94,11.23,11.23,0,0,1-5.3,1.12h-4.35v10h-5.21v-26h9.56a11.56,11.56,0,0,1,5.13,1,7.26,7.26,0,0,1,3.18,2.86,8.4,8.4,0,0,1,.07,8ZM626,485.46a3.63,3.63,0,0,0,1-2.77q0-3.8-4.24-3.8h-4.13v7.55h4.13A4.51,4.51,0,0,0,626,485.46Z"/><path class="cls-8" d="M648.4,500.62l-5.73-10.12h-2.46v10.12H635v-26h9.75a11.38,11.38,0,0,1,5.13,1.06,7.41,7.41,0,0,1,3.18,2.86,7.82,7.82,0,0,1,1.06,4,7.73,7.73,0,0,1-1.49,4.63,7.65,7.65,0,0,1-4.43,2.85l6.21,10.53Zm-8.19-14h4.35a4.35,4.35,0,0,0,3.16-1,3.81,3.81,0,0,0,1-2.85,3.63,3.63,0,0,0-1-2.77,4.46,4.46,0,0,0-3.16-1h-4.35Z"/><path class="cls-8" d="M663.1,499.17a12.77,12.77,0,0,1-4.84-4.74,14,14,0,0,1,0-13.69A12.78,12.78,0,0,1,663.1,476a14,14,0,0,1,13.41,0,12.68,12.68,0,0,1,4.8,4.74,14.14,14.14,0,0,1,0,13.69,12.64,12.64,0,0,1-4.82,4.74,14,14,0,0,1-13.39,0Zm10.83-4a7.27,7.27,0,0,0,2.79-3,10,10,0,0,0,1-4.58,9.84,9.84,0,0,0-1-4.56,7.17,7.17,0,0,0-2.79-3,8.05,8.05,0,0,0-4.13-1,8.15,8.15,0,0,0-4.15,1,7.13,7.13,0,0,0-2.81,3,9.84,9.84,0,0,0-1,4.56,10,10,0,0,0,1,4.58,7.22,7.22,0,0,0,2.81,3,8,8,0,0,0,4.15,1.06A7.93,7.93,0,0,0,673.93,495.17Z"/><path class="cls-8" d="M703.78,486.6a7.24,7.24,0,0,1-3.09,2.94,11.23,11.23,0,0,1-5.3,1.12H691v10h-5.21v-26h9.56a11.56,11.56,0,0,1,5.13,1,7.26,7.26,0,0,1,3.18,2.86,8.4,8.4,0,0,1,.07,8Zm-5.41-1.13a3.63,3.63,0,0,0,1-2.77q0-3.8-4.24-3.8H691v7.55h4.13A4.51,4.51,0,0,0,698.37,485.46Z"/><path class="cls-8" d="M712.54,478.86v6.51h8.74v4.13h-8.74v6.88h9.86v4.24H707.34v-26H722.4v4.24Z"/><path class="cls-8" d="M739.41,500.62l-5.73-10.12h-2.46v10.12H726v-26h9.75a11.38,11.38,0,0,1,5.13,1.06,7.41,7.41,0,0,1,3.18,2.86,7.82,7.82,0,0,1,1.06,4,7.73,7.73,0,0,1-1.49,4.63,7.65,7.65,0,0,1-4.43,2.85l6.21,10.53Zm-8.19-14h4.35a4.35,4.35,0,0,0,3.16-1,3.81,3.81,0,0,0,1-2.85,3.63,3.63,0,0,0-1-2.77,4.46,4.46,0,0,0-3.16-1h-4.35Z"/><path class="cls-8" d="M766.42,474.65v4.2H759.5v21.77h-5.21V478.86h-6.92v-4.2Z"/><path class="cls-8" d="M789.74,474.65,781,491.58v9h-5.21v-9l-8.82-16.93h5.88l5.58,11.87,5.54-11.87Z"/><path class="cls-8" d="M827.69,474.65v26h-5.21V483.73l-7,16.89h-3.94l-7-16.89v16.89h-5.21v-26h5.92L813.56,494l8.26-19.31Z"/><path class="cls-8" d="M847.64,495.67H837.29l-1.71,4.95h-5.47l9.34-26h6.06l9.34,26h-5.51Zm-1.41-4.17-3.76-10.86-3.76,10.86Z"/><path class="cls-8" d="M879.45,500.62h-5.21L862.44,482.8v17.82h-5.21v-26h5.21l11.79,17.86V474.62h5.21Z"/><path class="cls-8" d="M899.39,495.67H889l-1.71,4.95h-5.47l9.34-26h6.06l9.34,26H901.1ZM898,491.51l-3.76-10.86-3.76,10.86Z"/><path class="cls-8" d="M927.07,482.47a6.1,6.1,0,0,0-2.46-2.49,7.48,7.48,0,0,0-3.65-.86,8,8,0,0,0-4.09,1,7.2,7.2,0,0,0-2.79,3,10.5,10.5,0,0,0,0,9,7.23,7.23,0,0,0,2.85,3,8.39,8.39,0,0,0,4.24,1,7.35,7.35,0,0,0,4.87-1.58,7.54,7.54,0,0,0,2.49-4.41h-8.93v-4h14.06v4.54a12.21,12.21,0,0,1-2.23,5,12.6,12.6,0,0,1-4.41,3.7,13,13,0,0,1-6,1.4,13.68,13.68,0,0,1-6.79-1.69,12.32,12.32,0,0,1-4.76-4.71,14.44,14.44,0,0,1,0-13.71,12.28,12.28,0,0,1,4.76-4.73,14.5,14.5,0,0,1,14.38.45,10.93,10.93,0,0,1,4.46,6Z"/><path class="cls-8" d="M941.65,478.86v6.51h8.74v4.13h-8.74v6.88h9.86v4.24H936.44v-26h15.07v4.24Z"/><path class="cls-8" d="M983.43,474.65v26h-5.21V483.73l-7,16.89h-3.94l-7-16.89v16.89h-5.21v-26H961L969.29,494l8.26-19.31Z"/><path class="cls-8" d="M992.66,478.86v6.51h8.74v4.13h-8.74v6.88h9.86v4.24H987.45v-26h15.07v4.24Z"/><path class="cls-8" d="M1028.34,500.62h-5.21l-11.79-17.82v17.82h-5.21v-26h5.21l11.79,17.86V474.62h5.21Z"/><path class="cls-8" d="M1050,474.65v4.2h-6.92v21.77h-5.21V478.86H1031v-4.2Z"/><path class="cls-3" d="M361.13,266.37a107.68,107.68,0,0,1,41.18-41.18q26.1-14.75,58.53-14.75,37.94,0,66.47,19.46t39.88,53.83H515q-7.78-16.21-21.89-24.32t-32.59-8.11q-19.78,0-35.18,9.24a63.06,63.06,0,0,0-24,26.1q-8.59,16.86-8.59,39.56,0,22.37,8.59,39.4a62.82,62.82,0,0,0,24,26.27q15.4,9.24,35.18,9.24,18.48,0,32.59-8.27T515,368.35h52.21q-11.36,34.7-39.72,54t-66.64,19.29q-32.43,0-58.53-14.75a108,108,0,0,1-41.18-41q-15.08-26.27-15.08-59.66T361.13,266.37Z"/><path class="cls-3" d="M762.57,317.44q-8.59,15.89-26.91,25.62t-46.21,9.73H651.51v86.9h-45.4V213.35h83.34q26.27,0,44.75,9.08t27.72,25q9.24,15.89,9.24,36A70.51,70.51,0,0,1,762.57,317.44Zm-47.18-9.89q9.07-8.59,9.08-24.16,0-33.08-37-33.08h-36v65.83h36Q706.31,316.14,715.39,307.55Z"/><path class="cls-3" d="M1050,213.35V439.69h-45.4V292.47L944,439.69H909.62l-61-147.22V439.69h-45.4V213.35h51.56l72,168.29,72-168.29Z"/></svg>